# xmcd
#
# Track frame offsets:
#	150
#	17418
#	33234
#	47123
#	63847
#	75730
#	91838
#	105442
#	119755
#	134175
#	145079
#	159376
#	169680
#	182257
#	199835
#	209404
#	224328
#	238751
#	253944
#	272434
#	286785
#	299180
#	317832
#	331816
#
# Disc length: 4621 seconds
#
# Revision: 1
# Processed by: cddbd v1.5.2PL0 Copyright (c) Steve Scherf et al.
# Submitted via: audiograbber 1.83.01
#
DISCID=64120b18
DTITLE=Charley Pride - 50 Golden Years Of Pride CD2
DYEAR=2018
DGENRE=Country
TTITLE0=Just For The Love Of It (Featuring Joe Diffie)
TTITLE1=It's Just A Matter Of Time
TTITLE2=Sea Of Heartbreak
TTITLE3=Always On My Mind
TTITLE4=Lovesick Blues
TTITLE5=After All These Years
TTITLE6=Burning Down The Town ( Featuring Travis Trift)
TTITLE7=For Today Featuring Hal Ketchum)
TTITLE8=You'll Never Walk Alone
TTITLE9=He'll Have To Go
TTITLE10=I Don't Know Why I Love You But I Do
TTITLE11=Is It Really Over
TTITLE12=I Need Somebody Bad
TTITLE13=Mansions For Me
TTITLE14=I'm Gonna Change Everything
TTITLE15=Comfort Of Her Wings
TTITLE16=God's Colouing Book (featuring Dolly Parton)
TTITLE17=Plenty Good Lovin'
TTITLE18=Jesus It's Me Again
TTITLE19=Except For You
TTITLE20=Cajun Party Time
TTITLE21=Chain Of Love
TTITLE22=The Choices She Made
TTITLE23=Amazing Grace
EXTD=
EXTT0=
EXTT1=
EXTT2=
EXTT3=
EXTT4=
EXTT5=
EXTT6=
EXTT7=
EXTT8=
EXTT9=
EXTT10=
EXTT11=
EXTT12=
EXTT13=
EXTT14=
EXTT15=
EXTT16=
EXTT17=
EXTT18=
EXTT19=
EXTT20=
EXTT21=
EXTT22=
EXTT23=
PLAYORDER=
